<svg width="29" height="27" viewBox="0 0 29 27" fill="none" xmlns="http://www.w3.org/2000/svg">
<path d="M12.248 0H8.2366V27H12.248V0Z" fill="#F4F4F4"/>
<path d="M18.5394 15.598L20.6013 17.3373L20.4312 18.0754L21.1533 17.8026L21.8079 18.3562L21.5207 19.6078L22.7434 19.1457L24.6095 20.7181L24.372 21.7563L25.3845 21.3728L27.4897 23.149L27.3726 23.6625L27.8732 23.4732L28.6113 24.0957L28.6835 26.4881L26.1996 27L16.1053 18.483L18.5394 15.598Z" fill="#FCA311"/>
<path d="M8.05045 16.0569L14.4398 20.1036C15.0415 20.5079 15.855 20.3876 16.3284 19.8276L20.205 15.2321C20.6543 14.6994 20.6623 13.926 20.2227 13.3965L16.3862 8.26994C15.9353 7.72439 15.1458 7.60084 14.5393 7.98272L8.10982 13.6581C7.22891 14.2116 7.19682 15.4841 8.05045 16.0569ZM9.70636 15.5531C9.24906 15.168 9.19611 14.4796 9.58601 14.0175C9.97592 13.5538 10.6643 13.4912 11.12 13.8763C11.5773 14.2614 11.6302 14.9497 11.2403 15.4119C10.8504 15.8756 10.1637 15.9382 9.70636 15.5531Z" fill="#FCA311"/>
<path d="M16.1743 17.0838C18.3838 14.8743 18.3838 11.2913 16.1743 9.08022C13.9649 6.87074 10.3819 6.87074 8.17078 9.08022C5.95969 11.2897 5.96129 14.8727 8.17078 17.0838C10.3819 19.2933 13.9649 19.2933 16.1743 17.0838ZM11.5436 16.0071C10.9098 16.6409 9.88124 16.6409 9.24744 16.0071C8.61364 15.3733 8.61364 14.3448 9.24744 13.711C9.88124 13.0772 10.9098 13.0772 11.5436 13.711C12.179 14.3448 12.179 15.3733 11.5436 16.0071Z" fill="#F9D946"/>
<path d="M14.4254 8.97433L16.2497 7.14833L18.1512 7.49011L17.7115 5.68658L19.1043 4.29381L21.0057 4.63559L20.5676 2.83206L21.7646 1.63505L22.9231 1.84204L22.6552 0.742913L23.3531 0.0465324L25.1246 0L25.6974 2.66197L16.9044 11.4534L14.4254 8.97433Z" fill="#F9D946"/>
<path d="M5.70619 18.3305C8.30534 18.3305 10.4124 16.2235 10.4124 13.6244C10.4124 11.0252 8.30534 8.91817 5.70619 8.91817C3.10703 8.91817 1 11.0252 1 13.6244C1 16.2235 3.10703 18.3305 5.70619 18.3305Z" stroke="#F4F4F4" stroke-miterlimit="10"/>
<path d="M9.0774 15.8065C9.0774 15.8065 9.47533 16.3938 10.1653 16.466L9.1496 17.8684C9.1496 17.8684 8.24142 17.2587 7.84509 16.7308L9.0774 15.8065Z" fill="#F9D948"/>
<path d="M9.48977 15.3059C9.48977 15.3059 9.9029 15.8306 10.5062 15.8065L10.18 16.47C10.18 16.47 9.48977 16.4237 9.07739 15.8065L9.48977 15.3059Z" fill="#FCA311"/>
</svg>
