<svg width="97" height="29" viewBox="0 0 97 29" fill="none" xmlns="http://www.w3.org/2000/svg">
<path d="M32.0996 22.3409C30.3496 22.3409 28.8383 21.9773 27.5656 21.25C26.3004 20.5152 25.3269 19.4773 24.6451 18.1364C23.9633 16.7879 23.6224 15.2008 23.6224 13.375C23.6224 11.5795 23.9633 10.0038 24.6451 8.64773C25.3345 7.28409 26.2966 6.22349 27.5315 5.46591C28.7663 4.70076 30.2171 4.31818 31.8837 4.31818C32.9595 4.31818 33.9746 4.49243 34.9292 4.84091C35.8913 5.18182 36.7398 5.71212 37.4746 6.43182C38.2171 7.15152 38.8004 8.06818 39.2246 9.18182C39.6489 10.2879 39.861 11.6061 39.861 13.1364V14.3977H25.5542V11.625H35.9178C35.9103 10.8371 35.7398 10.1364 35.4065 9.52273C35.0731 8.90152 34.6072 8.41288 34.0087 8.05682C33.4178 7.70076 32.7284 7.52273 31.9406 7.52273C31.0996 7.52273 30.361 7.72727 29.7246 8.13636C29.0883 8.53788 28.5921 9.06818 28.236 9.72727C27.8875 10.3788 27.7095 11.0947 27.7019 11.875V14.2955C27.7019 15.3106 27.8875 16.1818 28.2587 16.9091C28.63 17.6288 29.1489 18.1818 29.8156 18.5682C30.4822 18.947 31.2625 19.1364 32.1565 19.1364C32.755 19.1364 33.2966 19.053 33.7815 18.8864C34.2663 18.7121 34.6868 18.4583 35.0428 18.125C35.3989 17.7917 35.6678 17.3788 35.8496 16.8864L39.6906 17.3182C39.4481 18.3333 38.986 19.2197 38.3042 19.9773C37.63 20.7273 36.7663 21.3106 35.7133 21.7273C34.6603 22.1364 33.4557 22.3409 32.0996 22.3409Z" fill="#F4F4F4"/>
<path d="M41.8779 28.5455C41.3173 28.5455 40.7984 28.5 40.3211 28.4091C39.8514 28.3258 39.4764 28.2273 39.1961 28.1136L40.1507 24.9091C40.7492 25.0833 41.2832 25.1667 41.7529 25.1591C42.2226 25.1515 42.6355 25.0038 42.9916 24.7159C43.3552 24.4356 43.662 23.9659 43.912 23.3068L44.2643 22.3636L37.9348 4.54546H42.2984L46.3211 17.7273H46.5029L50.537 4.54546H54.912L47.9234 24.1136C47.5976 25.0379 47.1658 25.8295 46.6279 26.4886C46.0901 27.1553 45.431 27.6629 44.6507 28.0114C43.8779 28.3674 42.9537 28.5455 41.8779 28.5455Z" fill="#F4F4F4"/>
<path d="M54.2386 28.5455V4.54546H58.2841V7.43182H58.5227C58.7348 7.00758 59.0341 6.55682 59.4204 6.07955C59.8068 5.5947 60.3295 5.18182 60.9886 4.84091C61.6477 4.49243 62.4886 4.31818 63.5114 4.31818C64.8598 4.31818 66.0757 4.66288 67.1591 5.35227C68.25 6.03409 69.1136 7.04546 69.75 8.38636C70.3939 9.7197 70.7159 11.3561 70.7159 13.2955C70.7159 15.2121 70.4015 16.8409 69.7727 18.1818C69.1439 19.5227 68.2879 20.5455 67.2045 21.25C66.1212 21.9545 64.8939 22.3068 63.5227 22.3068C62.5227 22.3068 61.6932 22.1402 61.0341 21.8068C60.375 21.4735 59.8447 21.072 59.4432 20.6023C59.0492 20.125 58.7424 19.6742 58.5227 19.25H58.3523V28.5455H54.2386ZM58.2727 13.2727C58.2727 14.4015 58.4318 15.3902 58.75 16.2386C59.0757 17.0871 59.5417 17.75 60.1477 18.2273C60.7614 18.697 61.5038 18.9318 62.375 18.9318C63.2841 18.9318 64.0454 18.6894 64.6591 18.2045C65.2727 17.7121 65.7348 17.0417 66.0454 16.1932C66.3636 15.3371 66.5227 14.3636 66.5227 13.2727C66.5227 12.1894 66.3674 11.2273 66.0568 10.3864C65.7462 9.54546 65.2841 8.88637 64.6704 8.40909C64.0568 7.93182 63.2917 7.69318 62.375 7.69318C61.4962 7.69318 60.75 7.92424 60.1364 8.38636C59.5227 8.84849 59.0568 9.49621 58.7386 10.3295C58.428 11.1629 58.2727 12.1439 58.2727 13.2727Z" fill="#F4F4F4"/>
<path d="M78.4459 22.3409C76.6959 22.3409 75.1845 21.9773 73.9118 21.25C72.6467 20.5152 71.6732 19.4773 70.9914 18.1364C70.3095 16.7879 69.9686 15.2008 69.9686 13.375C69.9686 11.5795 70.3095 10.0038 70.9914 8.64773C71.6807 7.28409 72.6429 6.22349 73.8777 5.46591C75.1126 4.70076 76.5633 4.31818 78.23 4.31818C79.3057 4.31818 80.3209 4.49243 81.2754 4.84091C82.2376 5.18182 83.086 5.71212 83.8209 6.43182C84.5633 7.15152 85.1467 8.06818 85.5709 9.18182C85.9951 10.2879 86.2073 11.6061 86.2073 13.1364V14.3977H71.9004V11.625H82.2641C82.2565 10.8371 82.086 10.1364 81.7527 9.52273C81.4194 8.90152 80.9535 8.41288 80.355 8.05682C79.7641 7.70076 79.0747 7.52273 78.2868 7.52273C77.4459 7.52273 76.7073 7.72727 76.0709 8.13636C75.4345 8.53788 74.9383 9.06818 74.5823 9.72727C74.2338 10.3788 74.0557 11.0947 74.0482 11.875V14.2955C74.0482 15.3106 74.2338 16.1818 74.605 16.9091C74.9762 17.6288 75.4951 18.1818 76.1618 18.5682C76.8285 18.947 77.6088 19.1364 78.5027 19.1364C79.1012 19.1364 79.6429 19.053 80.1277 18.8864C80.6126 18.7121 81.033 18.4583 81.3891 18.125C81.7451 17.7917 82.0141 17.3788 82.1959 16.8864L86.0368 17.3182C85.7944 18.3333 85.3323 19.2197 84.6504 19.9773C83.9762 20.7273 83.1126 21.3106 82.0595 21.7273C81.0065 22.1364 79.802 22.3409 78.4459 22.3409Z" fill="#F4F4F4"/>
<path d="M86.1674 22V4.54546H90.156V7.45455H90.3378C90.656 6.44697 91.2015 5.67046 91.9742 5.125C92.7545 4.57197 93.6446 4.29546 94.6446 4.29546C94.8719 4.29546 95.1257 4.30682 95.406 4.32955C95.6939 4.3447 95.9325 4.37121 96.1219 4.40909V8.19318C95.9477 8.13258 95.6712 8.07955 95.2924 8.03409C94.9212 7.98106 94.5613 7.95455 94.2128 7.95455C93.4628 7.95455 92.7886 8.11743 92.1901 8.44318C91.5992 8.76136 91.1333 9.20455 90.7924 9.77273C90.4515 10.3409 90.281 10.9962 90.281 11.7386V22H86.1674Z" fill="#F4F4F4"/>
<path d="M12.248 0H8.2366V27H12.248V0Z" fill="#F4F4F4"/>
<path d="M18.5394 15.598L20.6013 17.3373L20.4312 18.0754L21.1533 17.8026L21.8079 18.3562L21.5207 19.6078L22.7434 19.1457L24.6095 20.7181L24.372 21.7563L25.3845 21.3728L27.4897 23.149L27.3726 23.6625L27.8732 23.4732L28.6113 24.0957L28.6835 26.4881L26.1996 27L16.1053 18.483L18.5394 15.598Z" fill="#FCA311"/>
<path d="M8.05045 16.0569L14.4398 20.1036C15.0415 20.5079 15.855 20.3876 16.3284 19.8276L20.205 15.2321C20.6543 14.6994 20.6623 13.926 20.2227 13.3965L16.3862 8.26994C15.9353 7.72439 15.1458 7.60084 14.5393 7.98272L8.10982 13.6581C7.22891 14.2116 7.19682 15.4841 8.05045 16.0569ZM9.70636 15.5531C9.24906 15.168 9.19611 14.4796 9.58601 14.0175C9.97592 13.5538 10.6643 13.4912 11.12 13.8763C11.5773 14.2614 11.6302 14.9497 11.2403 15.4119C10.8504 15.8756 10.1637 15.9382 9.70636 15.5531Z" fill="#FCA311"/>
<path d="M16.1743 17.0838C18.3838 14.8743 18.3838 11.2913 16.1743 9.08022C13.9649 6.87074 10.3819 6.87074 8.17078 9.08022C5.95969 11.2897 5.96129 14.8727 8.17078 17.0838C10.3819 19.2933 13.9649 19.2933 16.1743 17.0838ZM11.5436 16.0071C10.9098 16.6409 9.88124 16.6409 9.24744 16.0071C8.61364 15.3733 8.61364 14.3448 9.24744 13.711C9.88124 13.0772 10.9098 13.0772 11.5436 13.711C12.179 14.3448 12.179 15.3733 11.5436 16.0071Z" fill="#F9D946"/>
<path d="M14.4254 8.97433L16.2497 7.14833L18.1512 7.49011L17.7115 5.68658L19.1043 4.29381L21.0057 4.63559L20.5676 2.83206L21.7646 1.63505L22.9231 1.84204L22.6552 0.742913L23.3531 0.0465324L25.1246 0L25.6974 2.66197L16.9044 11.4534L14.4254 8.97433Z" fill="#F9D946"/>
<path d="M5.70619 18.3305C8.30534 18.3305 10.4124 16.2235 10.4124 13.6244C10.4124 11.0252 8.30534 8.91817 5.70619 8.91817C3.10703 8.91817 1 11.0252 1 13.6244C1 16.2235 3.10703 18.3305 5.70619 18.3305Z" stroke="#F4F4F4" stroke-miterlimit="10"/>
<path d="M9.0774 15.8065C9.0774 15.8065 9.47533 16.3938 10.1653 16.466L9.1496 17.8684C9.1496 17.8684 8.24142 17.2587 7.84509 16.7308L9.0774 15.8065Z" fill="#F9D948"/>
<path d="M9.48977 15.3059C9.48977 15.3059 9.9029 15.8306 10.5062 15.8065L10.18 16.47C10.18 16.47 9.48977 16.4237 9.07739 15.8065L9.48977 15.3059Z" fill="#FCA311"/>
</svg>
